<svg width="193" height="193" fill="none" xmlns="http://www.w3.org/2000/svg"><path d="M151.129 119.513l9.207 5.053-4.765 8.681c-.555 1.01-1.196 1.691-1.924 2.044-.728.352-1.458.327-2.19-.074a2.399 2.399 0 01-1.064-1.136c-.224-.485-.268-1.055-.131-1.71-.54.629-1.107 1.017-1.7 1.164-.59.15-1.175.066-1.758-.254-.787-.432-1.236-1.066-1.346-1.9-.106-.833.148-1.807.761-2.924l4.91-8.944zm3.295 12.612l3.51-6.395-2.497-1.371-3.532 6.433c-.277.505-.387.96-.331 1.364.061.407.295.722.702.945.826.453 1.542.128 2.148-.976zm-3.971-1.929l3.616-6.588-2.632-1.445-3.63 6.613c-.35.638-.499 1.167-.445 1.586.054.42.297.748.73.985.436.24.854.26 1.253.062.4-.193.77-.597 1.108-1.213zm-18.17 13.836l7.226 7.621-1.61 1.527-7.227-7.621 1.611-1.527zm10.832-10.291l7.227 7.621-1.611 1.527-2.383-2.514-5.007 4.747c-.932.884-1.886 1.351-2.861 1.401-.975.057-1.834-.306-2.577-1.09-.746-.786-1.066-1.667-.961-2.641.106-.968.624-1.894 1.556-2.777l6.617-6.274zm-2.673 9.933l4.757-4.511-2.56-2.7-4.757 4.511c-.535.507-.834 1.008-.895 1.504-.065.499.114.972.537 1.418.417.44.874.639 1.373.597.495-.039 1.01-.312 1.545-.819zm-12.347 3.233l4.646 9.419-11.384 5.615-.738-1.498 9.458-4.665-1.101-2.234-6.805 3.357c-1.064.525-2.023.684-2.875.479-.853-.206-1.5-.755-1.94-1.648-.439-.889-.48-1.735-.124-2.536.353-.795 1.06-1.454 2.12-1.977l8.743-4.312zm-6.345 8.396l6.51-3.21-1.38-2.798-6.51 3.21c-.565.279-.933.608-1.106.987-.177.381-.154.797.069 1.248.227.46.548.737.965.831.412.096.896.007 1.452-.268zm-14.344-.733c2.497-.486 4.524-.398 6.08.264 1.553.668 2.491 1.834 2.814 3.497.329 1.687-.099 3.131-1.283 4.331-1.188 1.206-3.036 2.053-5.543 2.541-2.506.488-4.536.395-6.09-.278-1.553-.667-2.492-1.84-2.818-3.518-.326-1.672.106-3.109 1.295-4.311 1.19-1.196 3.038-2.038 5.545-2.526zm4.722 1.797c-1.073-.428-2.537-.461-4.392-.1-1.855.36-3.199.943-4.033 1.747-.837.809-1.142 1.796-.916 2.961.229 1.174.883 1.98 1.963 2.416 1.075.443 2.541.483 4.396.122 1.855-.36 3.198-.948 4.03-1.761.831-.813 1.132-1.81.903-2.989-.227-1.164-.877-1.963-1.951-2.396zm-14.35-.284l-.837 10.47-8.914-.713c-1.402-.112-2.47-.533-3.206-1.263-.735-.725-1.056-1.669-.963-2.832.092-1.154.563-2.03 1.415-2.628.846-.593 1.977-.834 3.393-.72l6.659.532.241-3.023 2.212.177zm-9.241 8.064l6.33.506.32-4.008-6.33-.506c-.856-.069-1.515.05-1.975.356-.46.306-.717.783-.768 1.43-.053.662.123 1.181.53 1.556.405.375 1.036.597 1.893.666zM56.74 140.961l-7.909 6.91-9.338-10.69 7.91-6.91 1.46 1.671-6.608 5.773 6.418 7.347 6.608-5.772 1.46 1.671zm-10.924-13.396l-9.503 4.474-3.81-8.091c-.598-1.273-.764-2.409-.495-3.41.264-.998.923-1.746 1.98-2.243 1.046-.493 2.04-.519 2.983-.077.935.439 1.705 1.302 2.31 2.587l2.846 6.044 2.743-1.292.946 2.008zm-11.59-4.016l2.706 5.746 3.638-1.713-2.705-5.745c-.366-.778-.797-1.29-1.291-1.538-.494-.248-1.035-.233-1.623.044-.6.282-.963.693-1.087 1.232s-.003 1.197.363 1.974zm4.392-16.57c.44 2.505.315 4.53-.376 6.074-.696 1.54-1.879 2.457-3.548 2.75-1.693.297-3.128-.157-4.307-1.363-1.184-1.21-1.997-3.073-2.438-5.588-.442-2.515-.312-4.543.39-6.084.696-1.541 1.885-2.458 3.569-2.754 1.678-.294 3.107.164 4.286 1.374 1.175 1.212 1.983 3.076 2.424 5.591zm-1.884 4.688c.448-1.065.508-2.528.182-4.389-.327-1.862-.885-3.216-1.673-4.064-.794-.852-1.775-1.176-2.944-.971-1.178.207-1.996.846-2.452 1.918-.462 1.068-.53 2.532-.203 4.393.327 1.861.89 3.215 1.687 4.062.798.846 1.789 1.165 2.972.958 1.169-.205 1.98-.841 2.431-1.907zm1.523-20.615l-1.44-.176-.112.924c-.26 2.118-.828 3.716-1.707 4.794-.884 1.073-1.997 1.527-3.34 1.363-1.342-.164-2.313-.875-2.912-2.134-.603-1.264-.776-2.95-.519-5.058l.113-.924-1.265-.154.273-2.232 1.265.154.12-.981c.258-2.113.831-3.708 1.72-4.785.884-1.078 1.998-1.535 3.34-1.37 1.343.163 2.314.874 2.913 2.133.594 1.253.762 2.939.504 5.057l-.12.981 1.44.176-.273 2.232zm-2.915-7.07c-.35-.805-.953-1.26-1.81-1.365-.858-.105-1.554.191-2.087.889-.537.692-.895 1.775-1.075 3.248l-.13 1.069 5.22.637.13-1.069c.18-1.473.097-2.61-.248-3.41zm-5.234 10.473c.35.8.954 1.253 1.812 1.357.858.105 1.553-.189 2.085-.881.528-.698.882-1.784 1.062-3.257l.123-1.011-5.22-.637-.123 1.01c-.18 1.474-.093 2.613.261 3.419zm9.815-14.895l-9.682-4.07 4.886-11.62 1.512.636-4.048 9.627 2.458 1.034 3.668-8.724 1.505.634-3.668 8.723 2.7 1.135L43.35 67.2l1.505.633-4.93 11.728zm1.289-16.026c-1.337-1.041-1.956-2.403-1.858-4.085.097-1.682.91-3.503 2.438-5.464 1.276-1.636 2.541-2.767 3.796-3.393 1.255-.625 2.447-.712 3.574-.26l-1.076 2.143c-1.517-.564-3.162.292-4.936 2.568-1.132 1.452-1.742 2.75-1.83 3.896-.088 1.138.34 2.075 1.283 2.81.947.739 1.96.928 3.04.568 1.082-.364 2.192-1.275 3.33-2.735 1.849-2.372 2.268-4.197 1.257-5.474l1.786-1.552c.754 1.003.986 2.187.696 3.552-.288 1.36-1.08 2.873-2.376 4.537-1.54 1.975-3.109 3.213-4.706 3.714-1.602.498-3.074.223-4.418-.825zM52.5 49.673c-.998-1.369-1.218-2.849-.66-4.439.556-1.59 1.84-3.117 3.848-4.58 1.677-1.222 3.205-1.96 4.584-2.216 1.379-.256 2.548-.01 3.507.734l-1.624 1.763c-1.303-.96-3.121-.59-5.453 1.11-1.488 1.084-2.432 2.164-2.832 3.24-.398 1.07-.245 2.089.459 3.056.707.97 1.63 1.432 2.766 1.383 1.14-.052 2.458-.622 3.954-1.712 2.431-1.771 3.337-3.41 2.717-4.915l2.144-1c.449 1.17.345 2.373-.31 3.605-.65 1.23-1.828 2.465-3.533 3.707-2.025 1.475-3.874 2.233-5.547 2.275-1.677.037-3.017-.633-4.02-2.01zm16.957-5.495l-3.593-9.87 2.057-.748 2.767 7.597 6.525-10.98 2.057-.75 3.594 9.87-2.058.749-2.762-7.584-6.53 10.967-2.057.749zm23.233-5.765c-2.538.16-4.537-.189-5.995-1.046-1.453-.863-2.233-2.14-2.34-3.83-.107-1.716.503-3.093 1.832-4.13 1.334-1.043 3.275-1.645 5.824-1.805 2.549-.16 4.55.193 6.004 1.06 1.453.864 2.233 2.148 2.341 3.853.107 1.701-.507 3.07-1.84 4.108-1.335 1.033-3.277 1.63-5.825 1.79zm-4.45-2.391c1.009.563 2.456.785 4.342.666 1.886-.119 3.294-.523 4.225-1.212.934-.695 1.364-1.634 1.29-2.819-.075-1.194-.62-2.077-1.634-2.649-1.01-.577-2.458-.807-4.344-.688-1.886.119-3.294.527-4.223 1.227-.93.7-1.357 1.648-1.282 2.847.075 1.184.617 2.06 1.626 2.628zm14.102 1.952l2.339-10.24 2.164.495-.943 4.127 9.832 2.247.943-4.127 2.163.494-2.339 10.239-2.164-.494 1.008-4.413-9.832-2.247-1.008 4.413-2.163-.494zm27.368 10.161l-.248-2.944-7.21-3.958-2.603 1.379-2.17-1.191 11.275-5.792 1.997 1.096 1.206 12.643-2.247-1.233zm-5.729-7.799l5.31 2.915-.462-5.476-4.848 2.561z" fill="#1E1E1E"/><path d="M132.286 47.449c.364.298.709.514 1.035.648.33.137.673.176 1.028.12.541-.08 1.142-.374 1.805-.88.663-.508 1.692-1.441 3.088-2.8l1.359-1.315 8.799 8.55-7.32 7.532-1.591-1.547 6.114-6.293-5.646-5.487-.251.237c-1.573 1.521-2.782 2.58-3.627 3.175-.844.596-1.656.927-2.435.994a3.623 3.623 0 01-1.74-.291c-.535-.234-1.117-.647-1.747-1.24l1.129-1.403zm14.988 20.311c-1.264-2.207-1.834-4.154-1.708-5.841.132-1.685.934-2.948 2.404-3.79 1.492-.854 2.996-.914 4.514-.18 1.524.736 2.921 2.213 4.19 4.429 1.269 2.216 1.835 4.168 1.699 5.855-.133 1.685-.94 2.952-2.423 3.801-1.479.847-2.979.901-4.499.163-1.516-.742-2.908-2.22-4.177-4.436zm.181-5.049c-.06 1.154.38 2.55 1.319 4.19.939 1.64 1.923 2.726 2.952 3.256 1.037.532 2.069.503 3.099-.087 1.038-.594 1.59-1.473 1.656-2.636.072-1.16-.361-2.561-1.3-4.2-.94-1.64-1.928-2.723-2.966-3.249-1.038-.525-2.078-.49-3.12.108-1.03.59-1.577 1.462-1.64 2.618zm4.347 13.354l10.183-2.57 2.423 9.602c.282 1.118.276 2.053-.017 2.807-.294.754-.845 1.233-1.655 1.437-.539.136-1.057.1-1.552-.107-.495-.202-.915-.59-1.261-1.162.033.827-.118 1.497-.452 2.01-.329.51-.816.848-1.46 1.01-.871.22-1.631.062-2.28-.475-.644-.537-1.122-1.424-1.434-2.66l-2.495-9.892zm11.002 6.991l-1.785-7.073-2.762.697 1.795 7.116c.141.558.369.967.686 1.224.322.256.707.328 1.157.214.914-.23 1.217-.956.909-2.178zm-4.222 1.292l-1.838-7.287-2.912.735 1.846 7.315c.177.705.429 1.193.754 1.464.325.27.727.345 1.205.224.483-.121.803-.39.959-.808.163-.414.158-.961-.014-1.643z" fill="#1E1E1E"/><g clip-path="url(#clip0_2_431)"><path d="M91.23 119.183a1.834 1.834 0 001.828-.673l7.626-9.782 12.382.737a1.834 1.834 0 001.713-.929 1.833 1.833 0 00-.075-1.947l-6.946-10.275 4.526-11.548a1.833 1.833 0 00-.354-1.916 1.834 1.834 0 00-1.875-.531L98.136 85.75l-3.716-3.053a.615.615 0 10-.781.951l3.966 3.258a.616.616 0 00.56.116l12.231-3.52c.23-.067.464 0 .625.176a.605.605 0 01.118.639l-4.645 11.849a.616.616 0 00.063.569l7.128 10.543a.605.605 0 01.025.649.605.605 0 01-.571.31l-12.704-.756a.615.615 0 00-.522.236l-7.825 10.037a.602.602 0 01-.61.224.603.603 0 01-.47-.447l-3.207-12.316a.616.616 0 00-.386-.424l-11.964-4.34a.602.602 0 01-.401-.51.604.604 0 01.28-.586l10.722-6.856a.616.616 0 00.284-.498l.43-12.719a.603.603 0 01.362-.54.603.603 0 01.643.086l3.966 3.258a.615.615 0 10.782-.95l-3.967-3.26a1.834 1.834 0 00-1.931-.255 1.84 1.84 0 00-1.084 1.62l-.42 12.395-10.45 6.682a1.834 1.834 0 00-.84 1.758c.078.704.54 1.291 1.205 1.532l11.66 4.23 3.125 12.003c.179.685.72 1.199 1.413 1.342z" fill="#1E1E1E"/></g><defs><clipPath id="clip0_2_431"><path fill="#fff" transform="rotate(119.672 36.623 81.988)" d="M0 0h42v42H0z"/></clipPath></defs></svg>