<svg width="126" height="125" fill="none" xmlns="http://www.w3.org/2000/svg"><g clip-path="url(#clip0_208_250)"><path d="M63 125c34.518 0 62.5-27.982 62.5-62.5S97.518 0 63 0 .5 27.982.5 62.5 28.482 125 63 125z" fill="#32BA7C"/><path d="M47.03 90.694l32.136 32.137C105.784 115.733 125.5 91.483 125.5 62.5v-1.775l-25.236-23.264L47.03 90.694z" fill="#0AA06E"/><path d="M64.578 76.498c2.76 2.76 2.76 7.492 0 10.253l-5.718 5.718c-2.76 2.76-7.492 2.76-10.252 0l-25.04-25.237c-2.76-2.76-2.76-7.492 0-10.252l5.718-5.718c2.76-2.76 7.492-2.76 10.252 0l25.04 25.236z" fill="#fff"/><path d="M86.463 32.926c2.76-2.76 7.492-2.76 10.253 0l5.717 5.718c2.76 2.76 2.76 7.492 0 10.252L59.058 92.074c-2.76 2.76-7.492 2.76-10.253 0l-5.717-5.718c-2.76-2.76-2.76-7.492 0-10.252l43.375-43.178z" fill="#fff"/></g><defs><clipPath id="clip0_208_250"><path fill="#fff" transform="translate(.5)" d="M0 0h125v125H0z"/></clipPath></defs></svg>