<svg width="24" height="24" fill="none" xmlns="http://www.w3.org/2000/svg"><g clip-path="url(#clip0_41_1282)"><path d="M12.067.37h-.005C5.72.37.564 5.53.564 11.87c0 2.517.811 4.848 2.19 6.741L1.32 22.884l4.42-1.413a11.4 11.4 0 006.326 1.9c6.341 0 11.497-5.16 11.497-11.5S18.409.37 12.067.37z" fill="#4CAF50"/><path d="M18.759 16.61c-.278.784-1.379 1.434-2.257 1.623-.601.128-1.386.23-4.028-.865-3.38-1.4-5.556-4.834-5.726-5.057-.162-.223-1.365-1.819-1.365-3.469s.838-2.454 1.176-2.799c.277-.283.736-.412 1.176-.412.142 0 .27.007.385.013.338.014.507.034.73.567.277.669.953 2.32 1.034 2.489.082.17.163.4.048.622-.107.23-.202.332-.372.528-.17.195-.33.345-.5.555-.155.182-.33.378-.135.716.195.33.87 1.433 1.866 2.318 1.283 1.143 2.324 1.508 2.696 1.663.278.115.608.088.811-.127.258-.278.575-.738.899-1.19.23-.326.52-.366.825-.25.31.107 1.953.92 2.291 1.087.338.17.56.25.643.393.08.142.08.81-.197 1.595z" fill="#FAFAFA"/></g><defs><clipPath id="clip0_41_1282"><path fill="#fff" transform="translate(.564 .37)" d="M0 0h23v23H0z"/></clipPath></defs></svg>